<mxfile host="app.diagrams.net" modified="2021-05-19T08:52:34.262Z" agent="5.0 (Windows NT 10.0; Win64; x64) AppleWebKit/537.36 (KHTML, like Gecko) Chrome/90.0.4430.212 Safari/537.36" etag="gku7zzBswBPN-yKUxDUi" version="14.6.13" type="github">
  <diagram id="R2lEEEUBdFMjLlhIrx00" name="Page-1">
    <mxGraphModel dx="723" dy="375" grid="0" gridSize="10" guides="1" tooltips="1" connect="1" arrows="1" fold="1" page="1" pageScale="1" pageWidth="850" pageHeight="1100" background="#FFFFFF" math="0" shadow="0" extFonts="Permanent Marker^https://fonts.googleapis.com/css?family=Permanent+Marker">
      <root>
        <mxCell id="0" />
        <mxCell id="1" parent="0" />
        <mxCell id="TCPF2A4LVqJYtG-bb745-1" value="用户" style="rounded=0;whiteSpace=wrap;html=1;" parent="1" vertex="1">
          <mxGeometry x="320" y="210" width="120" height="60" as="geometry" />
        </mxCell>
        <mxCell id="TCPF2A4LVqJYtG-bb745-12" style="edgeStyle=none;rounded=0;orthogonalLoop=1;jettySize=auto;html=1;endArrow=none;endFill=0;" parent="1" source="TCPF2A4LVqJYtG-bb745-2" target="TCPF2A4LVqJYtG-bb745-1" edge="1">
          <mxGeometry relative="1" as="geometry" />
        </mxCell>
        <mxCell id="TCPF2A4LVqJYtG-bb745-2" value="账号" style="ellipse;whiteSpace=wrap;html=1;" parent="1" vertex="1">
          <mxGeometry x="80" y="180" width="90" height="60" as="geometry" />
        </mxCell>
        <mxCell id="TCPF2A4LVqJYtG-bb745-11" style="rounded=0;orthogonalLoop=1;jettySize=auto;html=1;endArrow=none;endFill=0;" parent="1" source="TCPF2A4LVqJYtG-bb745-3" target="TCPF2A4LVqJYtG-bb745-1" edge="1">
          <mxGeometry relative="1" as="geometry" />
        </mxCell>
        <mxCell id="TCPF2A4LVqJYtG-bb745-3" value="ID" style="ellipse;whiteSpace=wrap;html=1;" parent="1" vertex="1">
          <mxGeometry x="170" y="220" width="90" height="60" as="geometry" />
        </mxCell>
        <mxCell id="TCPF2A4LVqJYtG-bb745-13" style="edgeStyle=none;rounded=0;orthogonalLoop=1;jettySize=auto;html=1;entryX=0;entryY=0.25;entryDx=0;entryDy=0;endArrow=none;endFill=0;" parent="1" source="TCPF2A4LVqJYtG-bb745-4" target="TCPF2A4LVqJYtG-bb745-1" edge="1">
          <mxGeometry relative="1" as="geometry" />
        </mxCell>
        <mxCell id="TCPF2A4LVqJYtG-bb745-4" value="密码" style="ellipse;whiteSpace=wrap;html=1;" parent="1" vertex="1">
          <mxGeometry x="130" y="100" width="90" height="60" as="geometry" />
        </mxCell>
        <mxCell id="TCPF2A4LVqJYtG-bb745-14" style="edgeStyle=none;rounded=0;orthogonalLoop=1;jettySize=auto;html=1;entryX=0.25;entryY=0;entryDx=0;entryDy=0;endArrow=none;endFill=0;" parent="1" source="TCPF2A4LVqJYtG-bb745-5" target="TCPF2A4LVqJYtG-bb745-1" edge="1">
          <mxGeometry relative="1" as="geometry" />
        </mxCell>
        <mxCell id="TCPF2A4LVqJYtG-bb745-5" value="头像" style="ellipse;whiteSpace=wrap;html=1;" parent="1" vertex="1">
          <mxGeometry x="230" y="70" width="90" height="60" as="geometry" />
        </mxCell>
        <mxCell id="TCPF2A4LVqJYtG-bb745-15" style="edgeStyle=none;rounded=0;orthogonalLoop=1;jettySize=auto;html=1;entryX=0.5;entryY=0;entryDx=0;entryDy=0;endArrow=none;endFill=0;" parent="1" source="TCPF2A4LVqJYtG-bb745-6" target="TCPF2A4LVqJYtG-bb745-1" edge="1">
          <mxGeometry relative="1" as="geometry" />
        </mxCell>
        <mxCell id="TCPF2A4LVqJYtG-bb745-6" value="角色名称" style="ellipse;whiteSpace=wrap;html=1;" parent="1" vertex="1">
          <mxGeometry x="340" y="60" width="90" height="60" as="geometry" />
        </mxCell>
        <mxCell id="TCPF2A4LVqJYtG-bb745-16" style="edgeStyle=none;rounded=0;orthogonalLoop=1;jettySize=auto;html=1;entryX=0.692;entryY=0;entryDx=0;entryDy=0;entryPerimeter=0;endArrow=none;endFill=0;" parent="1" source="TCPF2A4LVqJYtG-bb745-7" target="TCPF2A4LVqJYtG-bb745-1" edge="1">
          <mxGeometry relative="1" as="geometry" />
        </mxCell>
        <mxCell id="TCPF2A4LVqJYtG-bb745-7" value="存储空间额度" style="ellipse;whiteSpace=wrap;html=1;" parent="1" vertex="1">
          <mxGeometry x="440" y="60" width="90" height="60" as="geometry" />
        </mxCell>
        <mxCell id="TCPF2A4LVqJYtG-bb745-17" style="edgeStyle=none;rounded=0;orthogonalLoop=1;jettySize=auto;html=1;entryX=0.875;entryY=-0.033;entryDx=0;entryDy=0;entryPerimeter=0;endArrow=none;endFill=0;" parent="1" source="TCPF2A4LVqJYtG-bb745-8" target="TCPF2A4LVqJYtG-bb745-1" edge="1">
          <mxGeometry relative="1" as="geometry" />
        </mxCell>
        <mxCell id="TCPF2A4LVqJYtG-bb745-8" value="禁用权限等级" style="ellipse;whiteSpace=wrap;html=1;" parent="1" vertex="1">
          <mxGeometry x="520" y="100" width="90" height="60" as="geometry" />
        </mxCell>
        <mxCell id="TCPF2A4LVqJYtG-bb745-18" style="edgeStyle=none;rounded=0;orthogonalLoop=1;jettySize=auto;html=1;entryX=1;entryY=0.25;entryDx=0;entryDy=0;endArrow=none;endFill=0;" parent="1" source="TCPF2A4LVqJYtG-bb745-9" target="TCPF2A4LVqJYtG-bb745-1" edge="1">
          <mxGeometry relative="1" as="geometry" />
        </mxCell>
        <mxCell id="TCPF2A4LVqJYtG-bb745-9" value="是否被禁用" style="ellipse;whiteSpace=wrap;html=1;" parent="1" vertex="1">
          <mxGeometry x="570" y="170" width="90" height="60" as="geometry" />
        </mxCell>
        <mxCell id="TCPF2A4LVqJYtG-bb745-19" style="edgeStyle=none;rounded=0;orthogonalLoop=1;jettySize=auto;html=1;entryX=1;entryY=0.5;entryDx=0;entryDy=0;endArrow=none;endFill=0;" parent="1" source="TCPF2A4LVqJYtG-bb745-10" target="TCPF2A4LVqJYtG-bb745-1" edge="1">
          <mxGeometry relative="1" as="geometry" />
        </mxCell>
        <mxCell id="TCPF2A4LVqJYtG-bb745-10" value="用户访问IP" style="ellipse;whiteSpace=wrap;html=1;" parent="1" vertex="1">
          <mxGeometry x="510" y="220" width="90" height="60" as="geometry" />
        </mxCell>
      </root>
    </mxGraphModel>
  </diagram>
</mxfile>
